<?xml version="1.0" standalone="no"?>
<!DOCTYPE svg PUBLIC "-//W3C//DTD SVG 20010904//EN"
 "http://www.w3.org/TR/2001/REC-SVG-20010904/DTD/svg10.dtd">
<svg version="1.0" xmlns="http://www.w3.org/2000/svg"
 width="500.000000pt" height="500.000000pt" viewBox="0 0 500.000000 500.000000"
 preserveAspectRatio="xMidYMid meet">

<g transform="translate(0.000000,500.000000) scale(0.100000,-0.100000)"
fill="#000000" stroke="none">
<path d="M2231 2806 c-17 -29 -31 -56 -31 -60 0 -4 26 -6 57 -4 l57 3 13 50
c17 67 18 65 -26 65 -37 0 -41 -3 -70 -54z"/>
<path d="M2401 2816 c-18 -72 -16 -76 29 -76 l40 0 0 60 c0 59 0 60 -29 60
-26 0 -30 -5 -40 -44z"/>
<path d="M2522 2803 l3 -58 39 -3 c21 -2 42 0 46 5 3 4 2 32 -3 61 l-9 52 -39
0 -40 0 3 -57z"/>
<path d="M2664 2843 c2 -10 8 -37 11 -60 l7 -43 64 0 c35 0 64 3 64 7 0 4 -12
31 -27 60 -28 53 -28 53 -76 53 -41 0 -48 -3 -43 -17z"/>
<path d="M2167 2693 c-3 -5 -16 -29 -30 -55 l-25 -48 83 0 84 0 11 43 c6 23
13 48 15 55 3 9 -14 12 -65 12 -38 0 -71 -3 -73 -7z"/>
<path d="M2376 2688 c-3 -7 -7 -25 -10 -40 -3 -14 -9 -33 -12 -42 -5 -14 3
-16 55 -16 l61 0 0 55 0 55 -45 0 c-28 0 -47 -5 -49 -12z"/>
<path d="M2530 2645 l0 -55 61 0 61 0 -6 38 c-13 72 -13 72 -67 72 l-49 0 0
-55z"/>
<path d="M2700 2683 c0 -10 5 -35 11 -55 l10 -38 89 0 c57 0 90 4 90 11 0 6
-14 30 -30 55 l-31 44 -69 0 c-60 0 -70 -3 -70 -17z"/>
<path d="M2055 2488 c-45 -79 -55 -96 -55 -103 0 -3 53 -4 118 -3 l117 3 11
56 c6 31 14 69 18 83 l6 26 -89 0 -90 0 -36 -62z"/>
<path d="M2336 2533 c-3 -10 -12 -48 -20 -85 l-14 -68 90 0 89 0 -3 83 -3 82
-67 3 c-57 2 -67 0 -72 -15z"/>
<path d="M2530 2465 l0 -85 86 0 c80 0 85 1 79 20 -3 10 -12 47 -19 82 l-13
63 -66 3 -67 3 0 -86z"/>
<path d="M2730 2537 c0 -8 7 -47 16 -86 l16 -72 92 2 c50 0 108 4 128 6 42 6
44 -4 -21 108 l-29 50 -101 3 c-82 2 -101 0 -101 -11z"/>
<path d="M3200 2273 c-57 -9 -236 -44 -250 -49 -10 -4 -6 -10 15 -24 17 -11
39 -31 50 -45 l21 -25 58 15 c33 9 64 14 70 12 6 -2 -22 -12 -63 -22 -55 -13
-75 -23 -79 -37 -6 -24 -26 -18 -30 10 -2 15 2 22 14 22 13 0 14 3 4 15 -16
20 -46 19 -54 -1 -9 -24 -7 -63 4 -85 14 -25 60 -26 61 -1 0 11 2 12 6 4 7
-18 -16 -42 -41 -42 -49 0 -77 114 -35 144 22 15 18 36 -6 36 -8 0 -19 -8 -25
-17 -9 -16 -10 -15 -5 5 4 12 2 22 -4 22 -20 0 -44 -51 -45 -93 -1 -36 2 -42
19 -39 15 2 24 -8 38 -42 25 -61 57 -74 125 -50 l51 18 24 -26 c14 -15 28 -24
31 -21 3 4 6 1 6 -5 0 -7 -13 -12 -30 -12 l-30 0 0 -180 0 -180 75 0 75 0 0
180 0 180 -30 0 c-29 0 -42 21 -21 35 5 3 12 19 16 35 4 17 15 35 25 40 24 13
60 72 60 100 0 21 -3 22 -52 16 -58 -6 -55 -3 10 14 24 6 42 17 42 25 0 18
-49 75 -63 74 -7 -1 -23 -4 -37 -6z"/>
<path d="M1570 2110 l0 -70 203 0 c189 0 205 -1 221 -19 10 -11 16 -28 14 -38
-7 -36 -45 -43 -245 -43 l-193 0 0 -180 0 -180 75 0 74 0 3 108 3 107 28 3
c30 4 64 -28 170 -155 l52 -63 93 0 c50 0 92 2 92 3 0 2 -40 51 -90 108 l-90
104 40 12 c62 18 106 58 124 110 28 81 16 144 -38 201 -54 58 -75 62 -317 62
l-219 0 0 -70z"/>
<path d="M2429 2164 c-59 -18 -154 -109 -169 -162 -52 -176 5 -318 160 -398
49 -26 64 -29 142 -28 74 2 94 6 140 30 110 58 178 164 178 279 l0 55 -160 0
-160 0 0 -64 0 -64 75 -7 c75 -7 76 -8 58 -27 -30 -34 -70 -48 -132 -48 -73 0
-119 20 -149 66 -30 46 -30 125 0 170 40 59 69 68 218 74 l135 5 3 68 3 67
-148 -1 c-98 0 -164 -5 -194 -15z"/>
<path d="M990 1371 c0 -74 3 -91 15 -91 8 0 15 6 16 13 1 6 2 20 3 29 2 29 20
22 30 -11 6 -20 15 -31 27 -31 23 0 23 1 5 44 -9 22 -11 37 -4 44 5 5 8 27 6
48 -3 39 -3 39 -50 42 l-48 3 0 -90z m70 33 c0 -18 -26 -18 -33 0 -3 8 -3 16
0 19 9 10 33 -5 33 -19z"/>
<path d="M1144 1433 c-3 -16 -12 -54 -20 -86 -8 -32 -14 -61 -14 -63 0 -10 24
-3 34 11 10 13 15 12 44 -2 18 -9 34 -14 37 -12 2 3 -2 31 -10 64 -8 33 -16
72 -20 88 -4 18 -12 27 -25 27 -13 0 -22 -9 -26 -27z m36 -69 c0 -13 -4 -24
-10 -24 -5 0 -10 14 -10 31 0 17 4 28 10 24 6 -3 10 -17 10 -31z"/>
<path d="M1250 1370 c0 -99 19 -129 21 -32 1 49 2 53 10 27 4 -16 11 -42 14
-57 3 -16 10 -28 15 -28 5 0 12 12 15 28 3 15 10 41 14 57 8 26 9 22 10 -27 1
-45 4 -58 16 -58 13 0 15 14 13 88 -3 85 -3 87 -28 87 -23 0 -25 -5 -30 -50
l-5 -50 -8 35 c-15 64 -18 70 -38 70 -17 0 -19 -8 -19 -90z"/>
<path d="M1400 1370 l0 -90 45 0 c38 0 45 3 45 19 0 14 -8 21 -27 23 -27 3
-28 5 -31 71 -2 51 -6 67 -17 67 -12 0 -15 -18 -15 -90z"/>
<path d="M1521 1375 c-11 -46 -21 -87 -21 -90 0 -12 38 -4 44 11 5 14 9 13 36
-2 16 -10 31 -16 34 -13 5 5 -8 80 -24 140 -8 27 -16 39 -29 39 -15 0 -23 -17
-40 -85z m49 -11 c0 -13 -4 -24 -10 -24 -5 0 -10 14 -10 31 0 17 4 28 10 24 6
-3 10 -17 10 -31z"/>
<path d="M1640 1370 l0 -90 40 0 c51 0 64 22 58 102 -5 66 -15 78 -65 78 l-33
0 0 -90z m66 26 c9 -37 1 -70 -18 -74 -15 -3 -18 4 -18 47 0 38 4 51 15 51 8
0 17 -11 21 -24z"/>
<path d="M1834 1434 c-19 -28 -22 -101 -5 -132 14 -27 42 -35 75 -23 23 9 26
16 26 56 0 41 -2 45 -25 45 -18 0 -25 -5 -25 -19 0 -11 6 -21 13 -24 9 -4 9
-7 0 -17 -20 -22 -43 6 -43 52 0 41 19 59 43 40 21 -18 41 2 28 27 -17 31 -66
28 -87 -5z"/>
<path d="M1960 1370 l0 -90 45 0 c38 0 45 3 45 20 0 16 -7 20 -30 20 l-30 0 0
70 c0 56 -3 70 -15 70 -12 0 -15 -17 -15 -90z"/>
<path d="M2080 1445 c-18 -22 -24 -100 -10 -135 15 -36 44 -47 75 -26 40 26
46 124 9 161 -20 19 -58 19 -74 0z m58 -74 c4 -50 -9 -71 -33 -51 -27 23 -16
104 14 98 11 -2 17 -16 19 -47z"/>
<path d="M2200 1370 l0 -90 45 0 c38 0 47 4 56 24 8 17 8 29 0 44 -6 11 -8 34
-5 51 9 42 -9 61 -57 61 l-39 0 0 -90z m60 34 c0 -9 -5 -14 -12 -12 -18 6 -21
28 -4 28 9 0 16 -7 16 -16z m10 -68 c0 -20 -19 -31 -32 -18 -6 6 -7 15 -4 21
10 16 36 13 36 -3z"/>
<path d="M2355 1448 c-17 -52 -35 -125 -35 -145 0 -25 24 -32 33 -9 6 15 47
11 47 -5 0 -5 7 -9 15 -9 20 0 19 30 -3 110 -13 43 -24 66 -35 68 -10 2 -19
-2 -22 -10z m21 -106 c-11 -10 -15 4 -8 28 l7 25 3 -23 c2 -13 1 -26 -2 -30z"/>
<path d="M2450 1370 l0 -90 45 0 c38 0 45 3 45 20 0 15 -7 20 -25 20 -24 0
-25 2 -25 70 0 63 -2 70 -20 70 -19 0 -20 -7 -20 -90z"/>
<path d="M2610 1440 c0 -11 7 -20 15 -20 12 0 15 -14 15 -70 0 -63 2 -70 20
-70 18 0 20 7 20 70 0 63 2 70 20 70 13 0 20 7 20 20 0 18 -7 20 -55 20 -48 0
-55 -2 -55 -20z"/>
<path d="M2730 1370 l0 -90 50 0 c43 0 50 3 50 20 0 16 -7 20 -30 20 -39 0
-41 27 -3 32 17 2 29 10 31 21 3 13 -3 17 -27 17 -21 0 -31 5 -31 15 0 10 10
15 30 15 23 0 30 4 30 20 0 17 -7 20 -50 20 l-50 0 0 -90z"/>
<path d="M2866 1444 c-25 -24 -22 -128 4 -154 11 -11 27 -20 35 -20 8 0 24 9
35 20 37 37 18 69 -21 34 -16 -14 -18 -14 -29 6 -15 28 -4 90 15 90 8 0 15 -4
15 -10 0 -5 9 -10 20 -10 11 0 20 6 20 14 0 22 -29 46 -55 46 -13 0 -31 -7
-39 -16z"/>
<path d="M2980 1370 c0 -72 3 -90 14 -90 9 0 16 12 18 33 2 24 8 32 23 32 15
0 21 -8 23 -32 2 -21 9 -33 18 -33 11 0 14 18 14 90 0 73 -3 90 -15 90 -10 0
-15 -10 -15 -30 0 -25 -4 -30 -25 -30 -21 0 -25 5 -25 30 0 20 -5 30 -15 30
-12 0 -15 -17 -15 -90z"/>
<path d="M3120 1370 c0 -73 3 -90 15 -90 11 0 15 12 16 43 l0 42 22 -42 c13
-27 28 -43 39 -43 16 0 18 10 18 90 0 83 -1 90 -20 90 -17 0 -20 -7 -21 -42
l0 -43 -22 43 c-34 68 -47 56 -47 -48z"/>
<path d="M3271 1451 c-16 -10 -27 -97 -17 -136 7 -28 43 -47 74 -38 40 10 55
128 22 168 -14 17 -57 20 -79 6z m53 -47 c19 -50 -11 -118 -33 -75 -15 26 -14
64 1 79 16 16 25 15 32 -4z"/>
<path d="M3413 1452 c-21 -13 -35 -66 -28 -110 12 -83 96 -96 111 -17 9 47 -1
116 -18 126 -16 11 -49 11 -65 1z m51 -48 c18 -47 -12 -120 -35 -83 -19 30 -8
99 16 99 7 0 16 -7 19 -16z"/>
<path d="M3534 1425 c-39 -94 14 -185 82 -140 19 12 24 24 24 55 0 38 -2 40
-30 40 -33 0 -41 -23 -14 -38 19 -10 11 -32 -11 -32 -22 0 -38 39 -30 76 4 24
11 34 25 34 10 0 20 -5 22 -11 2 -5 11 -7 20 -4 11 4 14 13 11 23 -9 23 -23
32 -56 32 -23 0 -31 -7 -43 -35z"/>
<path d="M3660 1370 c0 -83 1 -90 20 -90 19 0 20 7 20 90 0 83 -1 90 -20 90
-19 0 -20 -7 -20 -90z"/>
<path d="M3727 1453 c-4 -3 -7 -44 -7 -90 l0 -83 50 0 c43 0 50 3 50 20 0 16
-7 20 -30 20 -39 0 -41 27 -3 32 17 2 29 10 31 21 3 13 -3 17 -27 17 -21 0
-31 5 -31 15 0 10 10 15 30 15 23 0 30 4 30 20 0 17 -7 20 -43 20 -24 0 -47
-3 -50 -7z"/>
<path d="M3852 1448 c-22 -22 -14 -66 16 -85 35 -23 44 -35 31 -48 -7 -7 -15
-4 -23 8 -19 25 -36 21 -36 -8 0 -41 68 -56 92 -21 4 6 8 26 8 44 0 27 -6 36
-36 54 -27 16 -32 23 -23 32 8 8 13 8 16 -1 5 -13 43 -19 43 -7 0 3 -5 14 -10
25 -12 22 -59 26 -78 7z"/>
</g>
</svg>
